# AST/ASF file generated using VICON BodyLanguage
# -----------------------------------------------
:version 1.10
:name VICON
:units
  mass 1.0
  length 0.45
  angle deg
:documentation
   .ast/.asf automatically generated from VICON data using
   VICON BodyBuilder and BodyLanguage model FoxedUp or BRILLIANT.MOD
:root
   order TX TY TZ RX RY RZ
   axis XYZ
   position 0 0 0  
   orientation 0 0 0 
:bonedata
  begin
     id 1 
     name lhipjoint
     direction 0.630082 -0.636569 0.44472 
     length 2.82754 
     axis 0 0 0  XYZ
  end
  begin
     id 2 
     name lfemur
     direction 0.34202 -0.939693 0  
     length 7.26371  
     axis 0 0 20  XYZ
    dof rx ry rz
    limits (-160.0 20.0)
           (-70.0 70.0)
           (-60.0 70.0)
  end
  begin
     id 3 
     name ltibia
     direction 0.34202 -0.939693 0   
     length 7.88616   
     axis 0 0 20   XYZ
    dof rx
    limits (-10.0 170.0)
  end
  begin
     id 4 
     name lfoot
     direction 0.0603448 -0.165796 0.984312   
     length 1.77861   
     axis -90 7.62852e-016 20   XYZ
    dof rx rz
    limits (-45.0 90.0)
           (-70.0 20.0)
  end
  begin
     id 5 
     name ltoes
     direction 1.53577e-011 -4.21876e-011 1   
     length 0.902235   
     axis -90 7.62852e-016 20   XYZ
    dof rx
    limits (-90.0 20.0)
  end
  begin
     id 6 
     name rhipjoint
     direction -0.656778 -0.61817 0.431866   
     length 2.9117  
     axis 0 0 0  XYZ 
  end
  begin
     id 7 
     name rfemur
     direction -0.34202 -0.939693 0   
     length 6.81603   
     axis 0 0 -20   XYZ
    dof rx ry rz
    limits (-160.0 20.0)
           (-70.0 70.0)
           (-70.0 60.0)
  end
  begin
     id 8 
     name rtibia
     direction -0.34202 -0.939693 0   
     length 8.05997   
     axis 0 0 -20   XYZ
    dof rx
    limits (-10.0 170.0)
 end
 begin
     id 9 
     name rfoot
     direction -0.0862404 -0.236944 0.967688   
     length 1.84899  
     axis -90 -7.62852e-016 -20   XYZ
    dof rx rz
    limits (-45.0 90.0)
           (-20.0 70.0)
  end
  begin
     id 10 
     name rtoes
     direction -1.53561e-011 -4.21798e-011 1   
     length 0.931579   
     axis -90 -7.62852e-016 -20   XYZ
    dof rx
    limits (-90.0 20.0)
  end
  begin
     id 11 
     name lowerback
     direction -0.0110203 0.991769 -0.127564   
     length 2.05686   
     axis 0 0 0   XYZ
    dof rx ry rz
    limits (-20.0 45.0)
           (-30.0 30.0)
           (-30.0 30.0)
  end
  begin
     id 12 
     name upperback
     direction 0.0109719 0.99993 -0.00432479   
     length 2.06234   
     axis 0 0 0   XYZ
    dof rx ry rz
    limits (-20.0 45.0)
           (-30.0 30.0)
           (-30.0 30.0)
  end
  begin
     id 13 
     name thorax
     direction 0.0173308 0.998351 0.0547306   
     length 2.09856   
     axis 0 0 0   XYZ
    dof rx ry rz
    limits (-20.0 45.0)
           (-30.0 30.0)
           (-30.0 30.0)
  end
  begin
     id 14 
     name lowerneck
     direction -0.0311736 0.989033 0.144366   
     length 1.98151   
     axis 0 0 0   XYZ
    dof rx ry rz
    limits (-20.0 45.0)
           (-30.0 30.0)
           (-30.0 30.0)
  end
  begin
     id 15 
     name upperneck
     direction 0.0421057 0.975772 -0.214698   
     length 2.01457   
     axis 0 0 0   XYZ
    dof rx ry rz
    limits (-20.0 45.0)
           (-30.0 30.0)
           (-30.0 30.0)
  end
  begin
     id 16
     name head
     direction 0.0136911 0.995958 -0.0887718  
     length 2.03562  
     axis 0 0 0   XYZ
    dof rx ry rz
    limits (-20.0 45.0)
           (-30.0 30.0)
           (-30.0 30.0)
  end
  begin
     id 17 
     name lclavicle
     direction 0.915335 0.396201 0.0720134  
     length 4.16217  
     axis 0 0 0   XYZ
    dof ry rz
    limits (-20.0 10.0)
           (0.0 20.0)
  end
  begin
     id 18 
     name lhumerus
     direction 1 -4.48965e-011 6.383e-018   
     length 4.93042   
     axis -180 -30 -90   XYZ
    dof rx ry rz
    limits (-60.0 90.0)
           (-90.0 90.0)
           (-90.0 90.0)
  end
  begin
     id 19
     name lradius
     direction 1 -4.48972e-011 8.8689e-027   
     length 3.68177   
     axis -180 -30 -90   XYZ
    dof rx
    limits (-10.0 170.0)
  end
  begin
     id 20
     name lwrist
     direction 1 -4.48953e-011 1.17971e-026   
     length 1.84089   
     axis -7.69454e-015 90 90   XYZ
    dof ry
    limits (-180.0 0.0)
 end
  begin
     id 21 
     name lhand
     direction 1 -4.49027e-011 2.35802e-026   
     length 0.721479   
     axis -1.50533e-014 90 90   XYZ
    dof rx rz
    limits (-90.0 90.0)
           (-45.0 45.0)
  end
  begin
     id 22 
     name lfingers
     direction 1 -4.48915e-011 4.72027e-026   
     length 0.581675   
     axis -3.01059e-014 90 90   XYZ
    dof rx
    limits (0.0 90.0)
  end
  begin
     id 23
     name lthumb
     direction 0.707107 -6.34948e-011 0.707107   
     length 0.835172   
     axis -90 45 -5.12164e-014   XYZ
    dof rx rz
    limits (-45.0 45.0)
           (-45.0 45.0)
  end
  begin
     id 24 
     name rclavicle
     direction -0.882781 0.469197 0.0234974   
     length 3.95647  
     axis 0 0 0   XYZ 
    dof ry rz
    limits (-10.0 20.0)
           (-20.0 0.0)
  end
  begin
     id 25 
     name rhumerus
     direction -1 -4.48965e-011 -1.54906e-018  
     length 5.07905   
     axis -180 30 90   XYZ
    dof rx ry rz
    limits (-90.0 60.0)
           (-90.0 90.0)
           (-90.0 90.0)
  end
  begin
     id 26 
     name rradius
     direction -1 -4.48972e-011 5.47489e-027   
     length 3.54394   
     axis -180 30 90   XYZ
    dof rx
    limits (-10.0 170.0)
  end
  begin
     id 27 
     name rwrist
     direction -1 -4.48955e-011 1.17969e-026   
     length 1.77197   
     axis -7.69454e-015 -90 -90   XYZ
    dof ry
    limits (-180.0 0.0)
  end
  begin
     id 28
     name rhand
     direction -1 -4.48982e-011 2.35888e-026   
     length 0.681156   
     axis -1.50533e-014 -90 -90   XYZ
    dof rx rz
    limits (-90.0 90.0)
           (-45.0 45.0)
  end
  begin
     id 29
     name rfingers
     direction -1 -4.48955e-011 4.71877e-026   
     length 0.549165   
     axis -3.01059e-014 -90 -90   XYZ
    dof rx
    limits (0.0 90.0)
  end
  begin
     id 30
     name rthumb
     direction -0.707107 -6.3491e-011 0.707107   
     length 0.788495   
     axis -90 -45 5.12164e-014   XYZ
    dof rx rz
    limits (-45.0 45.0)
           (-45.0 45.0)
  end
:hierarchy
  begin
    root lhipjoint rhipjoint lowerback
    lhipjoint lfemur
    lfemur ltibia
    ltibia lfoot
    lfoot ltoes
    rhipjoint rfemur
    rfemur rtibia
    rtibia rfoot
    rfoot rtoes
    lowerback upperback
    upperback thorax
    thorax lowerneck lclavicle rclavicle
    lowerneck upperneck
    upperneck head
    lclavicle lhumerus
    lhumerus lradius
    lradius lwrist
    lwrist lhand lthumb
    lhand lfingers
    rclavicle rhumerus
    rhumerus rradius
    rradius rwrist
    rwrist rhand rthumb
    rhand rfingers
  end

#!OML:ASF H:\Bending\Project 1\Capture day 1\Session 1\Subject.ASF
:FULLY-SPECIFIED
:DEGREES
160
root -10.7531 14.3058 -16.5517 151.289 90.5537 149.513
lowerback 35.722 -2.04728 4.84981
upperback 4.60971 0.236706 2.14805
thorax -12.7887 0.198698 -0.399436
lowerneck -26.1196 -3.36813 -5.50796
upperneck 16.2751 -3.72255 5.11809
head 9.61294 -1.4636 2.11664
rclavicle -1.19271e-014 -1.03368e-014
rhumerus -4.02378 3.22479 -92.7607
rradius 43.8473
rwrist 9.6278
rhand -21.2738 -16.8623
rfingers 7.12502
rthumb 5.11 -46.7807
lclavicle -1.19271e-014 -1.03368e-014
lhumerus 0.255577 -24.8432 95.1901
lradius 40.2013
lwrist 20.4172
lhand -46.1429 20.9987
lfingers 7.12502
lthumb -18.8832 50.1021
rfemur -46.1399 -38.8562 9.90599
rtibia 86.6374
rfoot -24.8743 11.4905
rtoes 0.437496
lfemur -46.1299 25.8961 -10.765
ltibia 86.7236
lfoot -25.1168 -23.1728
ltoes -15.8244
161
root -10.7047 14.5142 -16.5674 150.627 90.77 148.513
lowerback 34.2072 -1.94999 4.73092
upperback 4.43577 0.178557 2.28211
thorax -12.5204 0.157855 -0.199445
lowerneck -26.2621 -3.18155 -5.34004
upperneck 17.0692 -3.45582 4.70625
head 9.8927 -1.37654 1.9903
rclavicle -3.18055e-015 2.78299e-014
rhumerus -5.00664 4.01564 -92.5558
rradius 44.3606
rwrist 10.0724
rhand -21.0996 -16.8474
rfingers 7.12502
rthumb 5.27816 -46.7617
lclavicle -3.18055e-015 2.78299e-014
lhumerus -1.4113 -25.6019 95.221
lradius 41.6744
lwrist 20.905
lhand -46.2695 20.883
lfingers 7.12502
lthumb -19.0048 49.9745
rfemur -44.8255 -37.0124 10.3659
rtibia 84.04
rfoot -25.0192 9.98625
rtoes -0.797299
lfemur -44.9525 24.7482 -10.8961
ltibia 84.458
lfoot -26.0481 -21.2609
ltoes -20.6828
162
root -10.6571 14.7154 -16.5715 151.01 91.1642 148.13
lowerback 32.247 -1.73905 4.49352
upperback 4.12086 0.191451 2.44463
thorax -12.0918 0.15022 0.0840407
lowerneck -26.4539 -2.93446 -5.04566
upperneck 17.8729 -3.13061 4.23669
head 10.1828 -1.26183 1.83191
rclavicle -1.07344e-014 7.95139e-016
rhumerus -5.89759 4.79711 -92.4509
rradius 44.6942
rwrist 10.6304
rhand -20.9435 -16.839
rfingers 7.12502
rthumb 5.4289 -46.7495
lclavicle -1.07344e-014 7.95139e-016
lhumerus -3.18853 -26.2362 95.325
lradius 43.1311
lwrist 21.1778
lhand -46.5933 20.7262
lfingers 7.12502
lthumb -19.3163 49.7869
rfemur -44.188 -34.6187 11.3158
rtibia 81.4202
rfoot -25.1896 7.79156
rtoes -4.64806
lfemur -44.2986 23.7774 -11.0427
ltibia 82.1754
lfoot -26.8234 -19.2648
ltoes -25.2663
163
root -10.6089 14.9279 -16.5707 150.053 91.6176 146.701
lowerback 30.7341 -1.5766 4.27917
upperback 3.79729 0.200919 2.58224
thorax -11.826 0.143163 0.334298
lowerneck -26.6902 -2.65292 -4.6509
upperneck 18.6656 -2.79067 3.77954
head 10.4809 -1.13227 1.66356
rclavicle 7.95139e-016 -4.77083e-015
rhumerus -6.72206 5.76281 -92.412
rradius 44.8445
rwrist 11.06
rhand -20.8813 -16.8823
rfingers 7.12502
rthumb 5.48895 -46.7912
lclavicle 7.95139e-016 -4.77083e-015
lhumerus -5.04892 -26.7911 95.498
lradius 44.5001
lwrist 21.3175
lhand -47.1677 20.4394
lfingers 7.12502
lthumb -19.8685 49.4438
rfemur -42.9295 -31.7687 12.035
rtibia 78.5742
rfoot -25.3247 5.13281
rtoes -10.8494
lfemur -43.0948 22.7402 -10.9343
ltibia 79.6823
lfoot -27.4921 -17.3256
ltoes -28.8631
164
root -10.5593 15.1484 -16.5666 149.363 92.0654 145.767
lowerback 29.4298 -1.45214 4.05669
upperback 3.86069 0.177975 2.65556
thorax -11.9457 0.139172 0.593625
lowerneck -26.9585 -2.36759 -4.20452
upperneck 19.4222 -2.47557 3.38791
head 10.7794 -1.00213 1.50586
rclavicle -9.54166e-015 -4.77083e-015
rhumerus -7.51118 7.05082 -92.3993
rradius 44.8342
rwrist 11.2085
rhand -20.9506 -17.0026
rfingers 7.12502
rthumb 5.42201 -46.9132
lclavicle -9.54166e-015 -4.77083e-015
lhumerus -6.96391 -27.2755 95.75
lradius 45.745
lwrist 21.4146
lhand -47.9613 19.9769
lfingers 7.12502
lthumb -20.6312 48.9004
rfemur -41.2145 -28.5722 12.5223
rtibia 75.5694
rfoot -25.2638 2.26188
rtoes -17.9311
lfemur -41.4626 21.6296 -10.7002
ltibia 76.9976
lfoot -27.9842 -15.5401
ltoes -31.1388
165
root -10.5079 15.3699 -16.5614 149.739 92.4298 145.911
lowerback 28.2924 -1.37104 3.83926
upperback 3.48302 0.120943 2.70441
thorax -11.7994 0.104447 0.791202
lowerneck -27.2399 -2.10682 -3.76354
upperneck 20.117 -2.21083 3.08191
head 11.0668 -0.884153 1.37123
rclavicle -6.36111e-015 3.10104e-014
rhumerus -8.29423 8.68449 -92.3774
rradius 44.714
rwrist 11.052
rhand -21.1407 -17.1938
rfingers 7.12502
rthumb 5.23854 -47.1091
lclavicle -6.36111e-015 3.10104e-014
lhumerus -8.91363 -27.6547 96.0968
lradius 46.8849
lwrist 21.5298
lhand -48.854 19.3451
lfingers 7.12502
lthumb -21.4888 48.1731
rfemur -39.4348 -25.1908 12.8458
rtibia 72.4916
rfoot -24.8996 -0.47173
rtoes -23.9074
lfemur -39.7553 20.4749 -10.5481
ltibia 74.1581
lfoot -28.2191 -13.9273
ltoes -32.2106
166
root -10.4539 15.5912 -16.5559 151.301 92.6257 147.238
lowerback 27.1454 -1.32387 3.54806
upperback 3.09231 0.000672578 2.71983
thorax -11.6531 0.0439776 1.01394
lowerneck -27.5125 -1.89195 -3.37817
upperneck 20.7292 -2.00609 2.85167
head 11.3307 -0.787738 1.26264
rclavicle -4.77083e-015 1.59028e-015
rhumerus -9.09479 10.5595 -92.3258
rradius 44.5522
rwrist 10.6715
rhand -21.3968 -17.4202
rfingers 7.12502
rthumb 4.99125 -47.3414
lclavicle -4.77083e-015 1.59028e-015
lhumerus -10.8867 -27.8741 96.5437
lradius 47.9882
lwrist 21.6796
lhand -49.6736 18.5896
lfingers 7.12502
lthumb -22.2758 47.3257
rfemur -37.6321 -21.8083 12.9469
rtibia 69.4091
rfoot -24.3436 -2.75575
rtoes -27.4986
lfemur -38.0321 19.294 -10.5734
ltibia 71.197
lfoot -28.2038 -12.478
ltoes -32.5274
